# xmcd
#
# Track frame offsets:
#	150
#	17670
#	33912
#	51827
#	66941
#	81692
#	96302
#	113328
#	131270
#	149929
#	166170
#	179278
#	198268
#	214182
#	232432
#
# Disc length: 3273 seconds
#
# Revision: 2
# Processed by: cddbd v1.5.2PL0 Copyright (c) Steve Scherf et al.
# Submitted via: EasyCDDAExtractor 15.3.0.1
#
DISCID=dc0cc70f
DTITLE=Laura Pausini - Similares
DYEAR=2015
DGENRE=Latin
TTITLE0=Lado Derecho Del Corazon
TTITLE1=Similares
TTITLE2=200 Notas
TTITLE3=Enamorada
TTITLE4=Preguntale Al Cielo
TTITLE5=He Creido En Mi
TTITLE6=En La Puerta De Al Lado
TTITLE7=Nuestro Amor De Cada Dia
TTITLE8=Regresare (Con Calma Se Vera)
TTITLE9=Culpable
TTITLE10=Yo Estuve (+ Amor x Favor)
TTITLE11=Solo Nubes
TTITLE12=Es La Musica (Featuring ''Offiical Fan Club Members Singers And Playe
TTITLE12=rs'')
TTITLE13=Lo Sabias Antes Tu (Dedicated To My Father)
TTITLE14=A Ella Le Debo Mi Amor (Featuring Paolo And Paola Carta)
EXTD=
EXTT0=
EXTT1=
EXTT2=
EXTT3=
EXTT4=
EXTT5=
EXTT6=
EXTT7=
EXTT8=
EXTT9=
EXTT10=
EXTT11=
EXTT12=
EXTT13=
EXTT14=
PLAYORDER=
